:version 1.10
:name ASF
:units
  mass 1
  length 1
  angle deg
:documentation
  ASF file generated by Kaydara
:root
  axis xyz
  order  tx ty tz rx ry rz
  position 0 0 0
  orientation 0 0 0
:bonedata
  begin
    id 1
    name SpineDummy
    direction 0.999998 -0.00179978 1.38929e-006
    length 3.60008
    axis 0 0 0 xyz
  end
  begin
    id 2
    name Spine
    direction 0.964365 0.262802 0.0305839
    length 8.13928
    axis 1.33928 -1.75354 15.2838 xyz
    dof rx ry rz
  end
  begin
    id 3
    name Spine1
    direction 0.811168 0.572065 0.12144
    length 7.14954
    axis 2.2224 -6.9761 35.2157 xyz
    dof rx ry rz
  end
  begin
    id 4
    name Neck
    direction 0 0 0
    length 0
    axis 2.2224 -6.9761 35.2157 xyz
    dof rx ry rz
  end
  begin
    id 5
    name HeadDummy
    direction 0.810939 0.572387 0.121455
    length 3.55534
    axis 2.2224 -6.9761 35.2157 xyz
  end
  begin
    id 6
    name Head
    direction 0.998226 -0.000232542 0.0595419
    length 7.35666
    axis -3.03688 -3.41352 -0.0133467 xyz
    dof rx ry rz
  end
  begin
    id 7
    name R_ClavicleDummy
    direction 0.531669 -0.194489 -0.824319
    length 2.49392
    axis 2.2224 -6.9761 35.2157 xyz
  end
  begin
    id 8
    name R_Clavicle
    direction -0.155119 0.0480802 -0.986725
    length 4.485
    axis -54.2764 80.6538 162.779 xyz
    dof rx ry rz
  end
  begin
    id 9
    name R_UpperArm
    direction -0.955567 0.200068 -0.216484
    length 10.1122
    axis -72.9943 12.5026 168.175 xyz
    dof rx ry rz
  end
  begin
    id 10
    name R_Forearm
    direction -0.61433 0.385743 0.688332
    length 9.39148
    axis -117.015 -43.4982 147.875 xyz
    dof rx ry rz
  end
  begin
    id 11
    name R_Hand
    direction -0.699429 0.0170333 0.714499
    length 3.66324
    axis -45.0303 -36.7097 175.478 xyz
    dof rx ry rz
  end
  begin
    id 12
    name L_ClavicleDummy
    direction 0.40287 -0.36502 0.839319
    length 2.49392
    axis 2.2224 -6.9761 35.2157 xyz
  end
  begin
    id 13
    name L_Clavicle
    direction -0.231271 -0.0726419 0.970174
    length 4.485
    axis 18.4357 -75.9711 -162.563 xyz
    dof rx ry rz
  end
  begin
    id 14
    name L_UpperArm
    direction -0.917494 0.144359 0.370629
    length 10.1122
    axis 56.0417 -21.7544 171.058 xyz
    dof rx ry rz
  end
  begin
    id 15
    name L_Forearm
    direction -0.496786 0.615074 -0.612281
    length 9.39148
    axis 89.8094 37.7546 128.927 xyz
    dof rx ry rz
  end
  begin
    id 16
    name L_Hand
    direction -0.409932 0.64962 -0.640274
    length 3.66324
    axis -0.424369 32.133 128.52 xyz
    dof rx ry rz
  end
  begin
    id 17
    name L_ThighDummy
    direction -1.84081e-006 1.87549e-006 1
    length 3.13049
    axis 0 0 0 xyz
  end
  begin
    id 18
    name L_Thigh
    direction -0.947739 0.307978 0.083308
    length 17.9961
    axis 173.219 -4.77873 161.998 xyz
    dof rx ry rz
  end
  begin
    id 19
    name L_Calf
    direction -0.728814 -0.684427 0.0197583
    length 13.3367
    axis 167.331 -1.13214 -136.799 xyz
    dof rx ry rz
  end
  begin
    id 20
    name L_Foot
    direction -0.9028 0.418719 0.0981191
    length 5.8674
    axis 163.436 11.5135 -155.37 xyz
    dof rx ry rz
  end
  begin
    id 21
    name L_Toe0
    direction -0.35341 0.886259 0.299411
    length 4.75286
    axis 169.316 -17.4222 111.74 xyz
    dof rx ry rz
  end
  begin
    id 22
    name R_ThighDummy
    direction 9.32778e-007 -8.82053e-007 -1
    length 3.13049
    axis 0 0 0 xyz
  end
  begin
    id 23
    name R_Thigh
    direction -0.925064 0.37528 -0.0585023
    length 17.9961
    axis -178.698 3.35385 157.919 xyz
    dof rx ry rz
  end
  begin
    id 24
    name R_Calf
    direction -0.68969 -0.718776 -0.0876886
    length 13.3367
    axis -160.504 5.03065 -133.817 xyz
    dof rx ry rz
  end
  begin
    id 25
    name R_Foot
    direction -0.857405 0.418858 -0.299022
    length 5.8674
    axis -161.328 4.38911 -154.413 xyz
    dof rx ry rz
  end
  begin
    id 26
    name R_Toe0
    direction -0.100745 0.952789 -0.286433
    length 4.75286
    axis 171.683 16.6445 96.0359 xyz
    dof rx ry rz
  end
:hierarchy
  begin
    root SpineDummy L_ThighDummy R_ThighDummy
    SpineDummy Spine
    Spine Spine1
    Spine1 Neck
    Neck HeadDummy R_ClavicleDummy L_ClavicleDummy
    HeadDummy Head
    R_ClavicleDummy R_Clavicle
    R_Clavicle R_UpperArm
    R_UpperArm R_Forearm
    R_Forearm R_Hand
    L_ClavicleDummy L_Clavicle
    L_Clavicle L_UpperArm
    L_UpperArm L_Forearm
    L_Forearm L_Hand
    L_ThighDummy L_Thigh
    L_Thigh L_Calf
    L_Calf L_Foot
    L_Foot L_Toe0
    R_ThighDummy R_Thigh
    R_Thigh R_Calf
    R_Calf R_Foot
    R_Foot R_Toe0
  end

:SAMPLES-PER-SECOND 30
:FULLY-SPECIFIED
:DEGREES
535
root  -13.3906 15.19 -10.5818 100.102 7.15016 37.2078
Spine  17.9122 15.6812 17.1187
Spine1  15.0352 -21.514 -19.858
Neck  3.97569e-016 0 -2.38542e-015
Head  10.2947 8.82946 21.9363
R_Clavicle  -0.282979 -5.64263 -2.60384
R_UpperArm  31.2849 8.73717 24.3455
R_Forearm  22.6411 -21.2715 19.1548
R_Hand  0.448749 6.17042 -5.9749
L_Clavicle  -0.309391 9.80478 0.630849
L_UpperArm  -39.2531 21.3495 18.6287
L_Forearm  -47.3767 -5.3564 -0.496978
L_Hand  35.5738 -52.15 -70.5928
L_Thigh  -7.69666 -22.1098 28.27
L_Calf  -14.898 0.47174 -3.60311
L_Foot  14.2457 15.7181 28.0872
L_Toe0  0.887532 0.0301906 -5.78783
R_Thigh  11.6116 2.4754 -34.211
R_Calf  -21.2835 -1.91331 -5.87811
R_Foot  7.50693 32.8184 -11.8097
R_Toe0  21.443 -6.07544 -3.99094
536
root  -13.4456 14.8393 -9.00304 104.937 13.8091 35.6539
Spine  10.9905 13.6077 9.657
Spine1  7.3415 -8.7577 -15.9374
Neck  3.97569e-016 0 -2.38542e-015
Head  18.5021 9.00874 26.3465
R_Clavicle  -0.298011 -2.76756 -2.01372
R_UpperArm  34.0038 11.662 21.4018
R_Forearm  22.0705 -20.3591 17.9542
R_Hand  0.510728 5.70161 -4.79072
L_Clavicle  -0.214077 8.9788 -0.608141
L_UpperArm  -40.4473 29.4476 27.7711
L_Forearm  -54.5838 -7.37272 -0.139705
L_Hand  43.1185 -51.0319 -83.5558
L_Thigh  -8.71167 -21.49 17.8238
L_Calf  -25.0906 -0.0701616 0.20611
L_Foot  24.7599 27.3723 37.5796
L_Toe0  4.05471 -0.22859 -2.90444
R_Thigh  17.347 3.16979 -28.7933
R_Calf  -28.9248 -7.10696 -22.6771
R_Foot  5.33073 23.0611 -13.9227
R_Toe0  22.6797 -7.02088 -2.17012
537
root  -13.071 14.6449 -7.6431 103.904 20.435 33.2438
Spine  6.61293 12.0313 5.84161
Spine1  2.91851 0.621327 -14.5195
Neck  3.97569e-016 0 -2.38542e-015
Head  27.2164 7.46008 30.9273
R_Clavicle  0.137633 1.08689 0.787491
R_UpperArm  33.5496 16.8311 11.6624
R_Forearm  19.4226 -21.9839 19.3855
R_Hand  0.790735 7.03047 -4.09065
L_Clavicle  -0.0854115 8.14111 -1.98495
L_UpperArm  -38.9143 36.7763 37.588
L_Forearm  -61.2863 -7.29057 1.24366
L_Hand  49.0248 -52.679 -89.4558
L_Thigh  -6.75392 -19.2636 10.5917
L_Calf  -37.4617 0.306851 -2.64361
L_Foot  28.217 30.0962 40.7748
L_Toe0  8.87254 -1.13415 1.51648
R_Thigh  21.6691 2.65802 -20.0074
R_Calf  -25.6152 -11.3175 -38.1804
R_Foot  4.60021 16.2624 -5.93065
R_Toe0  16.711 -3.98601 -5.78917
538
root  -12.456 14.3989 -6.54947 96.1423 26.4545 32.2943
Spine  5.08482 9.59494 4.44833
Spine1  1.85385 6.29094 -12.0374
Neck  3.97569e-016 0 -2.38542e-015
Head  35.803 4.45621 35.0435
R_Clavicle  0.848892 3.19664 4.04407
R_UpperArm  30.4598 23.6306 -3.42761
R_Forearm  14.2803 -24.8786 21.2581
R_Hand  0.848688 8.97446 -5.71232
L_Clavicle  -0.192219 10.8919 -2.61226
L_UpperArm  -36.651 41.6311 47.4523
L_Forearm  -65.609 -7.36961 2.30517
L_Hand  50.2823 -53.1461 -90.4621
L_Thigh  -9.39831 -16.7473 7.73691
L_Calf  -39.2785 1.49774 -11.2777
L_Foot  20.4713 26.9117 29.8174
L_Toe0  10.4031 -1.63684 3.07379
R_Thigh  22.7935 1.90858 -7.40703
R_Calf  -14.2773 -13.7407 -49.0722
R_Foot  4.93857 16.2732 2.43261
R_Toe0  8.04306 -1.26636 -11.3294
539
root  -11.8045 13.9837 -5.34013 86.8315 33.1044 32.6691
Spine  5.10215 8.10498 4.86418
Spine1  2.5363 8.13917 -8.50837
Neck  3.97569e-016 0 -2.38542e-015
Head  42.1981 0.722524 38.4057
R_Clavicle  1.18316 3.37183 5.53741
R_UpperArm  26.8732 28.2309 -17.8807
R_Forearm  11.8319 -25.2959 21.3274
R_Hand  0.715265 10.2279 -7.6821
L_Clavicle  -0.470717 16.4366 -1.59402
L_UpperArm  -35.4588 43.953 55.2001
L_Forearm  -69.0661 -8.87522 1.89167
L_Hand  48.8153 -50.3169 -92.6368
L_Thigh  -14.4364 -14.478 5.5628
L_Calf  -31.7715 2.64032 -19.8344
L_Foot  13.4291 21.0684 20.7594
L_Toe0  5.79097 -0.557318 -1.06537
R_Thigh  25.0248 2.36246 3.99804
R_Calf  -7.54272 -14.686 -54.125
R_Foot  6.2216 19.2568 6.82866
R_Toe0  -0.633594 -0.181051 -16.6905
540
root  -11.0255 13.3625 -4.12554 80.6876 41.1521 34.5552
Spine  6.42245 9.49235 8.24004
Spine1  3.88343 5.03938 -6.31297
Neck  3.97569e-016 0 -2.38542e-015
Head  43.6048 -1.83572 40.2147
R_Clavicle  1.31611 4.20931 6.01711
R_UpperArm  25.8992 30.0017 -26.7856
R_Forearm  13.9564 -22.1222 19.6629
R_Hand  0.517525 10.3288 -9.07422
L_Clavicle  -0.589617 19.6672 -0.924634
L_UpperArm  -34.5054 45.1022 58.7468
L_Forearm  -68.7454 -10.0703 1.06611
L_Hand  48.6839 -48.5133 -95.1427
L_Thigh  -15.8331 -14.1978 3.67063
L_Calf  -26.3737 2.85868 -21.5699
L_Foot  11.1687 16.2077 20.121
L_Toe0  0.440434 0.0862101 -6.22431
R_Thigh  30.6555 1.93348 9.34629
R_Calf  -9.44469 -15.2576 -57.5152
R_Foot  7.7434 22.4908 9.41474
R_Toe0  -1.82527 -0.285779 -17.5317
541
root  -9.91252 12.5538 -2.99425 77.5891 49.1349 39.8127
Spine  9.70143 12.219 13.3228
Spine1  6.60194 -2.50344 -5.44823
Neck  3.97569e-016 0 -2.38542e-015
Head  40.449 -2.32466 40.266
R_Clavicle  1.61185 5.91364 6.9991
R_UpperArm  29.3563 31.6855 -31.6193
R_Forearm  14.4286 -19.6275 17.2226
R_Hand  0.244053 10.3311 -10.9019
L_Clavicle  -0.569552 18.868 -1.22147
L_UpperArm  -32.5154 46.0182 58.7856
L_Forearm  -62.5704 -10.2423 0.197847
L_Hand  51.8921 -50.2043 -96.7703
L_Thigh  -14.3805 -16.6198 4.65521
L_Calf  -26.2134 1.88013 -14.0967
L_Foot  12.4893 16.7448 22.9452
L_Toe0  0.471612 0.0351162 -6.16602
R_Thigh  35.9312 0.725044 9.01156
R_Calf  -8.46204 -15.9668 -62.2715
R_Foot  7.9327 22.2306 12.15
R_Toe0  -3.03356 -0.140037 -16.3783
542
root  -8.63317 11.7353 -2.0492 74.632 54.8474 47.5863
Spine  14.5733 14.391 18.0733
Spine1  10.8844 -11.617 -5.07108
Neck  3.97569e-016 0 -2.38542e-015
Head  36.6817 -2.81739 39.5629
R_Clavicle  1.72322 7.80294 7.07883
R_UpperArm  29.884 34.1485 -35.938
R_Forearm  13.9685 -19.9003 17.5057
R_Hand  -0.0740616 10.7939 -13.2156
L_Clavicle  -0.505539 17.3657 -1.05485
L_UpperArm  -29.8113 46.7354 57.9599
L_Forearm  -54.1911 -10.3778 -1.2539
L_Hand  55.1447 -52.228 -97.8601
L_Thigh  -11.6366 -17.9399 9.265
L_Calf  -25.5906 0.0926367 -0.835544
L_Foot  15.2443 23.9204 21.9027
L_Toe0  0.505156 0.0359871 -6.13608
R_Thigh  38.1735 1.2126 5.57524
R_Calf  4.15438 -16.6149 -67.4135
R_Foot  3.15946 11.6099 17.9332
R_Toe0  -6.3995 0.289522 -11.6707
543
root  -7.53932 11.0534 -1.19778 71.7627 58.4094 55.8349
Spine  19.3004 14.8421 21.9363
Spine1  15.3163 -19.1893 -5.12652
Neck  3.97569e-016 0 -2.38542e-015
Head  36.3416 -4.95041 38.5098
R_Clavicle  1.7579 10.3349 7.05319
R_UpperArm  27.5577 36.1556 -42.2791
R_Forearm  11.8616 -23.1885 20.5278
R_Hand  -0.119744 10.9897 -13.5966
L_Clavicle  -0.460101 16.2711 -0.0189695
L_UpperArm  -26.5588 48.6881 58.3898
L_Forearm  -47.4162 -11.2867 -3.14888
L_Hand  53.9767 -50.7383 -98.5748
L_Thigh  -3.87484 -14.0585 12.7959
L_Calf  -21.3634 -1.35634 9.85404
L_Foot  10.2598 17.6228 16.2762
L_Toe0  0.505156 0.0364589 -6.13608
R_Thigh  36.4324 0.467151 0.567314
R_Calf  21.736 -17.101 -72.1421
R_Foot  -3.27754 0.719729 30.0867
R_Toe0  -0.434338 -0.169959 -11.7647
544
root  -6.91926 10.7745 -0.259048 71.4756 61.057 61.1012
Spine  21.8763 15.3359 23.709
Spine1  17.4192 -22.5468 -4.51153
Neck  3.97569e-016 0 -2.38542e-015
Head  42.0488 -7.94693 35.1317
R_Clavicle  1.79241 12.9468 6.68475
R_UpperArm  26.1151 36.4252 -50.9317
R_Forearm  6.35014 -26.9708 23.1534
R_Hand  0.386097 10.7413 -10.2087
L_Clavicle  -0.420895 14.3139 1.15596
L_UpperArm  -23.1223 52.763 60.1555
L_Forearm  -41.7092 -12.1399 -4.00579
L_Hand  46.6438 -46.5014 -95.4807
L_Thigh  6.11049 -8.02916 17.5917
L_Calf  -18.5631 -1.19652 8.55912
L_Foot  8.7722 15.6259 14.2723
L_Toe0  0.505156 0.0364302 -6.13608
R_Thigh  32.2944 -3.50107 -4.3712
R_Calf  27.9454 -17.4811 -76.7695
R_Foot  -3.3371 2.72624 39.8864
R_Toe0  0.798608 -0.30209 -16.4389
